<svg width="16" height="16" viewBox="0 0 16 16" fill="none" xmlns="http://www.w3.org/2000/svg">
<g clip-path="url(#clip0_539_1988)">
<path d="M13.3333 4C13.5032 4.00019 13.6667 4.06525 13.7902 4.1819C13.9138 4.29854 13.9882 4.45797 13.9981 4.6276C14.0081 4.79722 13.9529 4.96425 13.8438 5.09455C13.7348 5.22486 13.5801 5.3086 13.4113 5.32867L13.3333 5.33333H13.2793L12.6667 12.6667C12.6667 13.1768 12.4718 13.6677 12.1218 14.0388C11.7718 14.41 11.2933 14.6334 10.784 14.6633L10.6667 14.6667H5.33333C4.26799 14.6667 3.39733 13.834 3.33866 12.8333L3.33533 12.722L2.71999 5.33333H2.66666C2.49674 5.33314 2.33331 5.26808 2.20975 5.15143C2.08619 5.03479 2.01184 4.87536 2.00188 4.70574C1.99192 4.53611 2.04711 4.36908 2.15617 4.23878C2.26523 4.10848 2.41993 4.02474 2.58866 4.00467L2.66666 4H13.3333Z" fill="#E93737"/>
<path d="M9.33331 1.33334C9.68693 1.33334 10.0261 1.47382 10.2761 1.72387C10.5262 1.97392 10.6666 2.31305 10.6666 2.66668C10.6665 2.8366 10.6014 3.00003 10.4847 3.12359C10.3681 3.24715 10.2087 3.3215 10.0391 3.33146C9.86942 3.34142 9.70239 3.28623 9.57209 3.17717C9.44179 3.06811 9.35805 2.91341 9.33798 2.74468L9.33331 2.66668H6.66665L6.66198 2.74468C6.64191 2.91341 6.55817 3.06811 6.42787 3.17717C6.29757 3.28623 6.13054 3.34142 5.96091 3.33146C5.79128 3.3215 5.63186 3.24715 5.51521 3.12359C5.39857 3.00003 5.3335 2.8366 5.33331 2.66668C5.33321 2.33029 5.46025 2.0063 5.68898 1.75964C5.9177 1.51299 6.23121 1.36191 6.56665 1.33668L6.66665 1.33334H9.33331Z" fill="#E93737"/>
</g>
<defs>
<clipPath id="clip0_539_1988">
<rect width="16" height="16" fill="white"/>
</clipPath>
</defs>
</svg>
