<svg width="21" height="20" viewBox="0 0 21 20" fill="none" xmlns="http://www.w3.org/2000/svg">
<path d="M4.54623 10.3788C4.54623 9.95536 4.72545 9.54923 5.04446 9.24978C5.36347 8.95033 5.79614 8.7821 6.24729 8.7821H14.7526C15.2037 8.7821 15.6364 8.95033 15.9554 9.24978C16.2744 9.54923 16.4536 9.95536 16.4536 10.3788V15.1691C16.4536 15.5926 16.2744 15.9987 15.9554 16.2981C15.6364 16.5976 15.2037 16.7658 14.7526 16.7658H6.24729C5.79614 16.7658 5.36347 16.5976 5.04446 16.2981C4.72545 15.9987 4.54623 15.5926 4.54623 15.1691V10.3788Z" stroke="currentColor" stroke-width="2" stroke-linecap="round" stroke-linejoin="round"/>
<path d="M9.64941 12.774C9.64941 12.9857 9.73902 13.1888 9.89853 13.3385C10.058 13.4882 10.2744 13.5723 10.4999 13.5723C10.7255 13.5723 10.9419 13.4882 11.1014 13.3385C11.2609 13.1888 11.3505 12.9857 11.3505 12.774C11.3505 12.5622 11.2609 12.3591 11.1014 12.2094C10.9419 12.0597 10.7255 11.9756 10.4999 11.9756C10.2744 11.9756 10.058 12.0597 9.89853 12.2094C9.73902 12.3591 9.64941 12.5622 9.64941 12.774Z" stroke="currentColor" stroke-width="2" stroke-linecap="round" stroke-linejoin="round"/>
<path d="M7.09781 8.78211V5.58862C7.09781 4.74166 7.45624 3.92939 8.09427 3.33049C8.73229 2.7316 9.59763 2.39514 10.4999 2.39514C11.4022 2.39514 12.2676 2.7316 12.9056 3.33049C13.5436 3.92939 13.902 4.74166 13.902 5.58862V8.78211" stroke="currentColor" stroke-width="2" stroke-linecap="round" stroke-linejoin="round"/>
</svg>

