<svg fill="none" height="17" viewBox="0 0 16 17" width="16" xmlns="http://www.w3.org/2000/svg"><path d="m14.5037 14.2377-2.2916-2.2404-.0537-.0817c-.0999-.0995-.2364-.1555-.379-.1555-.1425 0-.279.056-.3789.1555-1.94752 1.7867-4.94841 1.8838-7.0125.2269-2.0641-1.6568-2.55089-4.55355-1.13755-6.76901 1.41335-2.21547 4.28826-3.06222 6.71811-1.97869 2.42984 1.08352 3.66064 3.7611 2.87614 6.25697-.0565.18031-.0103.37643.1211.51443.1315.1379.3283.1969.5162.1546.188-.0423.3386-.1795.3951-.3598.9378-2.96186-.4786-6.14926-3.333-7.50025-2.85444-1.351-6.29021-.46016-8.08474 2.09624-1.794518 2.55639-1.40925 6.01111.90659 8.12941 2.31583 2.1182 5.86723 2.2642 8.35675.3436l2.0291 1.9837c.2095.204.5483.204.7579 0 .2093-.2069.2093-.5399 0-.7468z" fill="currentColor"/></svg>