<svg width="25" height="24" viewBox="0 0 25 24" fill="none" xmlns="http://www.w3.org/2000/svg">
<path d="M21.3575 9.55L19.469 8.92L20.3583 7.14C20.4484 6.95369 20.4786 6.74397 20.4446 6.53978C20.4106 6.33558 20.3141 6.14699 20.1684 6L18.0401 3.87C17.8925 3.72209 17.7022 3.62421 17.4961 3.59013C17.29 3.55605 17.0784 3.58748 16.8911 3.68L15.1125 4.57L14.483 2.68C14.4165 2.483 14.2903 2.31163 14.122 2.18975C13.9536 2.06787 13.7515 2.00155 13.5438 2H10.5462C10.3367 1.99946 10.1323 2.06482 9.962 2.18685C9.79166 2.30887 9.66395 2.48138 9.59692 2.68L8.96743 4.57L7.18886 3.68C7.00269 3.58978 6.79314 3.55961 6.58911 3.59364C6.38508 3.62767 6.19664 3.72423 6.04977 3.87L3.92148 6C3.77369 6.14777 3.67588 6.33818 3.64183 6.54446C3.60778 6.75074 3.63918 6.96251 3.73163 7.15L4.62092 8.93L2.73244 9.56C2.53559 9.62654 2.36436 9.75283 2.24258 9.92131C2.1208 10.0898 2.05452 10.2921 2.05298 10.5V13.5C2.05244 13.7096 2.11775 13.9142 2.23967 14.0846C2.3616 14.2551 2.53397 14.3829 2.73244 14.45L4.62092 15.08L3.73163 16.86C3.64149 17.0463 3.61133 17.256 3.64534 17.4602C3.67934 17.6644 3.77583 17.853 3.92148 18L6.04977 20.13C6.19742 20.2779 6.38768 20.3758 6.59379 20.4099C6.7999 20.444 7.01151 20.4125 7.19885 20.32L8.97742 19.43L9.60691 21.32C9.67395 21.5186 9.80166 21.6911 9.97199 21.8132C10.1423 21.9352 10.3467 22.0005 10.5562 22H13.5537C13.7632 22.0005 13.9676 21.9352 14.1379 21.8132C14.3082 21.6911 14.4359 21.5186 14.503 21.32L15.1325 19.43L16.911 20.32C17.096 20.4079 17.3035 20.4369 17.5055 20.4029C17.7074 20.3689 17.8941 20.2737 18.0401 20.13L20.1684 18C20.3162 17.8522 20.414 17.6618 20.4481 17.4555C20.4821 17.2493 20.4507 17.0375 20.3583 16.85L19.469 15.07L21.3575 14.44C21.5543 14.3735 21.7256 14.2472 21.8473 14.0787C21.9691 13.9102 22.0354 13.7079 22.0369 13.5V10.5C22.0375 10.2904 21.9722 10.0858 21.8502 9.91537C21.7283 9.7449 21.5559 9.61709 21.3575 9.55ZM20.0385 12.78L18.8395 13.18C18.5638 13.2695 18.3108 13.418 18.0982 13.6151C17.8855 13.8122 17.7182 14.0533 17.6079 14.3216C17.4977 14.5899 17.447 14.879 17.4596 15.1688C17.4721 15.4586 17.5474 15.7422 17.6804 16L18.25 17.14L17.1509 18.24L16.0417 17.64C15.7855 17.5122 15.5048 17.4411 15.2187 17.4313C14.9326 17.4215 14.6477 17.4734 14.3834 17.5834C14.1191 17.6934 13.8814 17.8589 13.6866 18.0688C13.4917 18.2787 13.3442 18.5281 13.254 18.8L12.8543 20H11.2656L10.8659 18.8C10.7765 18.5241 10.6281 18.2709 10.4312 18.0581C10.2342 17.8452 9.99331 17.6778 9.72524 17.5675C9.45717 17.4571 9.16832 17.4064 8.87872 17.419C8.58913 17.4315 8.30572 17.5069 8.04817 17.64L6.90908 18.21L5.80996 17.11L6.40948 16C6.54247 15.7422 6.61783 15.4586 6.63035 15.1688C6.64287 14.879 6.59223 14.5899 6.48196 14.3216C6.37169 14.0533 6.20442 13.8122 5.99176 13.6151C5.7791 13.418 5.52614 13.2695 5.25041 13.18L4.05138 12.78V11.22L5.25041 10.82C5.52614 10.7305 5.7791 10.582 5.99176 10.3849C6.20442 10.1878 6.37169 9.94671 6.48196 9.67842C6.59223 9.41014 6.64287 9.12105 6.63035 8.83123C6.61783 8.5414 6.54247 8.25777 6.40948 8L5.83994 6.89L6.93906 5.79L8.04817 6.36C8.30572 6.4931 8.58913 6.56852 8.87872 6.58105C9.16832 6.59358 9.45717 6.5429 9.72524 6.43254C9.99331 6.32218 10.2342 6.15478 10.4312 5.94195C10.6281 5.72912 10.7765 5.47595 10.8659 5.2L11.2656 4H12.8243L13.224 5.2C13.3134 5.47595 13.4618 5.72912 13.6588 5.94195C13.8557 6.15478 14.0966 6.32218 14.3647 6.43254C14.6327 6.5429 14.9216 6.59358 15.2112 6.58105C15.5008 6.56852 15.7842 6.4931 16.0417 6.36L17.1808 5.79L18.2799 6.89L17.6804 8C17.5528 8.25645 17.4817 8.53735 17.4719 8.82369C17.4621 9.11003 17.514 9.39513 17.6239 9.65969C17.7338 9.92424 17.8992 10.1621 18.1089 10.3571C18.3187 10.5521 18.5678 10.6997 18.8395 10.79L20.0385 11.19V12.78ZM12.045 8C11.2545 8 10.4817 8.2346 9.82446 8.67413C9.16719 9.11365 8.65491 9.73836 8.3524 10.4693C8.0499 11.2002 7.97075 12.0044 8.12496 12.7804C8.27918 13.5563 8.65984 14.269 9.2188 14.8284C9.77776 15.3878 10.4899 15.7688 11.2652 15.9231C12.0405 16.0775 12.8441 15.9983 13.5745 15.6955C14.3048 15.3928 14.929 14.8801 15.3682 14.2223C15.8073 13.5645 16.0417 12.7911 16.0417 12C16.0417 10.9391 15.6207 9.92172 14.8711 9.17158C14.1216 8.42143 13.105 8 12.045 8ZM12.045 14C11.6497 14 11.2633 13.8827 10.9347 13.6629C10.6061 13.4432 10.3499 13.1308 10.1987 12.7654C10.0474 12.3999 10.0079 11.9978 10.085 11.6098C10.1621 11.2219 10.3524 10.8655 10.6319 10.5858C10.9114 10.3061 11.2674 10.1156 11.6551 10.0384C12.0427 9.96126 12.4445 10.0009 12.8097 10.1522C13.1749 10.3036 13.487 10.56 13.7066 10.8889C13.9261 11.2178 14.0433 11.6044 14.0433 12C14.0433 12.5304 13.8328 13.0391 13.458 13.4142C13.0833 13.7893 12.575 14 12.045 14Z" fill="currentColor"/>
</svg>
